<?xml version="1.0" standalone="no"?>
<!DOCTYPE svg PUBLIC "-//W3C//DTD SVG 20010904//EN"
 "http://www.w3.org/TR/2001/REC-SVG-20010904/DTD/svg10.dtd">
<svg version="1.0" xmlns="http://www.w3.org/2000/svg"
 width="2983.000000pt" height="1883.000000pt" viewBox="0 0 2983.000000 1883.000000"
 preserveAspectRatio="xMidYMid meet">

<g transform="translate(0.000000,1883.000000) scale(0.100000,-0.100000)"
fill="#000000" stroke="none">
<path d="M19780 13177 c0 -1 16 -43 35 -92 57 -145 77 -229 82 -355 4 -88 1
-130 -12 -180 -37 -145 -89 -191 -330 -295 -280 -121 -324 -162 -281 -266 16
-40 23 -104 31 -284 3 -71 11 -159 17 -195 9 -56 16 -70 51 -104 65 -62 177
-130 382 -233 105 -52 203 -106 218 -121 26 -24 28 -31 23 -74 -17 -125 -102
-321 -170 -387 -53 -52 -97 -61 -179 -37 -109 32 -187 117 -187 207 0 94 42
165 120 201 47 22 48 23 32 41 -42 47 -92 62 -202 62 -114 0 -180 -16 -251
-61 -63 -39 -71 -59 -71 -177 0 -125 23 -254 64 -362 26 -65 42 -91 92 -141
91 -90 193 -123 386 -124 163 -1 258 -16 395 -66 112 -39 139 -45 190 -42 92
6 160 44 276 155 209 201 330 416 316 564 -9 103 -150 367 -271 509 -91 108
-118 120 -442 210 -116 32 -235 70 -265 83 -149 66 -292 361 -232 477 26 50
71 76 146 84 166 17 336 122 415 256 25 41 27 54 27 150 0 101 -2 108 -37 183
-21 43 -62 111 -93 152 -70 92 -275 288 -275 262z"/>
<path d="M17253 12271 c-65 -22 -141 -68 -308 -187 -280 -198 -561 -458 -744
-686 -52 -65 -95 -118 -96 -118 -1 0 -60 9 -131 20 -120 18 -315 37 -428 43
l-49 2 2 97 c2 90 1 98 -19 108 -36 19 -168 -33 -289 -114 -29 -20 -55 -36
-57 -36 -2 0 13 27 32 60 19 33 36 73 37 88 4 59 -60 36 -248 -89 -60 -41
-116 -78 -123 -82 -18 -12 11 45 53 103 47 65 48 84 6 88 -19 2 -54 -4 -78
-13 -57 -22 -183 -112 -258 -185 l-60 -58 -135 -21 c-152 -24 -408 -81 -517
-116 l-72 -23 -40 67 c-97 165 -266 371 -390 477 -141 121 -463 328 -646 415
-186 89 -266 94 -306 19 -25 -46 -24 -105 6 -490 64 -807 105 -1172 148 -1294
13 -39 13 -42 -34 -135 -94 -190 -150 -392 -193 -691 -70 -485 -74 -799 -12
-1003 l14 -48 -26 17 c-50 33 -77 44 -105 44 -50 0 -97 -30 -129 -82 -56 -91
-79 -90 -180 12 -71 72 -83 80 -117 80 -30 0 -48 -9 -89 -45 -78 -65 -132 -76
-275 -54 -112 17 -166 53 -167 111 0 54 83 120 167 134 33 5 44 2 69 -19 l29
-25 -21 -29 c-11 -15 -35 -32 -52 -38 -36 -10 -42 -25 -11 -25 28 0 78 37 89
66 22 56 -34 103 -107 90 -148 -26 -228 -142 -154 -223 34 -38 99 -59 209 -68
111 -10 171 6 233 61 77 68 95 63 213 -64 68 -74 129 -67 181 22 30 52 82 81
127 72 55 -11 128 -67 154 -117 27 -55 129 -191 173 -233 34 -32 39 -46 17
-46 -8 0 -37 -16 -66 -36 -107 -73 -208 -82 -325 -28 -74 34 -140 36 -208 5
-70 -31 -107 -27 -211 22 l-91 42 -120 0 c-100 0 -127 -3 -160 -20 -75 -38
-71 -116 9 -155 44 -21 116 -27 116 -10 0 6 -15 10 -32 11 -51 0 -98 21 -116
52 -25 41 -2 78 58 94 109 28 247 10 360 -47 73 -37 111 -38 207 -5 81 28 88
28 203 -18 65 -26 83 -29 146 -25 73 5 136 29 179 68 44 40 69 36 147 -23 150
-112 302 -199 436 -247 34 -12 62 -25 62 -29 0 -3 -26 -14 -58 -25 -50 -16
-76 -17 -169 -11 -101 6 -113 5 -154 -15 -96 -47 -118 -52 -197 -39 -61 10
-82 9 -135 -4 -34 -9 -90 -19 -125 -23 -72 -7 -117 -36 -127 -83 -7 -35 -38
-64 -90 -88 -31 -14 -64 -17 -150 -16 -165 2 -227 31 -179 85 15 16 26 19 56
14 22 -4 38 -2 38 3 0 17 -40 22 -92 12 -18 -3 -38 -36 -38 -61 0 -42 30 -57
139 -70 106 -13 187 -7 246 19 47 21 69 44 90 94 20 48 48 65 120 73 33 3 86
13 118 21 49 14 69 14 126 4 76 -14 105 -9 176 28 47 24 58 26 195 26 134 0
149 2 200 26 52 24 58 25 105 12 28 -7 103 -20 168 -29 64 -10 117 -21 117
-26 0 -5 -17 -35 -38 -66 -63 -93 -147 -238 -224 -387 l-73 -140 -1245 -2
c-907 -1 -1264 -5 -1315 -14 -297 -50 -537 -276 -618 -579 l-22 -85 0 -2515 0
-2515 22 -82 c20 -77 61 -169 104 -240 11 -17 16 -33 12 -36 -31 -18 -180 -32
-343 -31 -169 1 -194 3 -285 28 -331 90 -591 319 -756 665 -84 175 -106 272
-71 314 8 9 12 20 8 24 -10 10 -39 -10 -53 -38 -7 -13 -13 -18 -13 -11 0 7 -4
11 -9 8 -5 -3 -14 8 -20 25 -6 17 -15 28 -20 25 -6 -4 -6 -17 0 -36 13 -36 -5
-78 -26 -60 -9 7 -15 8 -19 1 -4 -6 -15 -2 -26 9 -20 20 -70 28 -70 11 0 -5
10 -11 23 -15 19 -4 29 -24 59 -114 138 -414 404 -734 739 -891 107 -50 238
-88 355 -103 l92 -12 7 -35 c4 -20 23 -70 42 -111 46 -96 150 -202 241 -248
138 -68 -296 -63 4942 -60 l4735 3 66 26 c90 35 148 70 202 122 94 92 152 210
164 333 l6 64 -272 0 c-149 0 -271 3 -271 8 1 4 24 33 53 64 51 55 55 57 153
82 575 146 988 435 1169 819 62 130 86 228 92 373 7 150 -7 256 -52 391 -109
329 -331 586 -598 693 -136 54 -227 71 -409 77 l-168 6 -2 1506 -3 1506 -23
75 c-41 133 -107 245 -197 335 -116 118 -242 188 -395 221 -88 19 -2177 21
-2172 2 6 -23 -9 -58 -29 -69 -33 -17 -65 -3 -92 43 -24 41 -27 43 -80 46 -47
3 -62 -1 -103 -28 -27 -17 -49 -34 -49 -39 0 -5 18 -40 40 -79 l40 -72 1146 0
c1262 0 1183 4 1314 -62 81 -41 183 -145 223 -228 66 -134 62 44 62 -2690 0
-2748 4 -2557 -66 -2690 -72 -138 -232 -256 -379 -280 -38 -6 -1554 -10 -4145
-10 -3506 0 -4095 2 -4153 15 -101 21 -196 75 -272 156 -70 74 -103 130 -132
224 -17 58 -18 163 -18 2595 l0 2535 23 65 c13 35 36 85 50 110 39 66 138 160
207 197 128 67 48 63 1332 63 640 0 1163 -2 1163 -3 0 -12 -201 -452 -207
-454 -5 -2 -276 -4 -603 -5 l-595 -3 -50 -27 c-27 -14 -49 -32 -47 -38 1 -6
-1 -9 -6 -6 -13 8 -76 -63 -98 -109 -17 -36 -19 -69 -22 -312 l-3 -273 572 0
572 0 -24 -26 -24 -27 30 7 30 6 -28 -25 c-15 -14 -35 -25 -43 -25 -8 0 -14
-4 -14 -10 0 -21 41 -9 76 22 35 31 36 32 29 8 -16 -51 -23 -90 -15 -95 11 -7
20 6 20 31 0 25 35 64 57 64 7 0 16 -13 19 -29 10 -46 64 -95 64 -57 0 7 -7
19 -15 26 -22 18 -20 43 3 31 15 -8 17 -4 14 39 -3 42 -1 48 20 53 12 4 1293
7 2846 7 l2823 0 -3 263 c-3 261 -3 262 -30 320 -15 32 -32 56 -37 53 -5 -3
-8 2 -7 11 1 20 -81 86 -96 77 -7 -4 -8 -2 -4 4 4 7 -13 17 -46 27 -46 13
-329 15 -2595 15 -1399 0 -2543 2 -2543 4 0 2 15 40 34 84 19 44 32 83 29 86
-4 3 -1 6 5 6 10 0 23 25 21 44 0 5 3 12 8 15 17 12 31 58 22 72 -5 8 -8 21
-8 29 0 8 4 5 9 -7 5 -13 12 -23 14 -23 3 0 2 7 -1 17 -4 10 -2 14 4 10 6 -4
24 21 42 58 l31 65 1477 0 1478 0 25 -41 c47 -76 97 -80 195 -15 l55 36 34
-53 c38 -60 60 -80 85 -82 13 -1 17 4 13 17 -5 21 -13 23 -31 6 -11 -11 -12
-10 -6 1 5 9 4 12 -3 7 -6 -3 -13 -3 -16 2 -11 18 54 6 68 -13 14 -19 15 -19
21 8 10 37 -10 81 -32 73 -25 -10 -58 18 -93 78 -17 31 -35 58 -40 61 -6 3
-26 -5 -47 -19 -35 -24 -38 -25 -54 -8 -9 9 -14 21 -11 26 3 5 -2 6 -12 3 -11
-4 -15 -3 -10 4 7 12 -26 79 -38 79 -5 0 -8 6 -8 13 0 7 -17 33 -37 57 -21 24
-31 40 -23 35 11 -7 10 -1 -4 20 -11 16 -23 34 -28 40 -5 5 -23 34 -39 63 -16
29 -34 50 -39 47 -6 -4 -7 1 -3 11 4 11 3 15 -5 10 -6 -4 -11 1 -11 11 0 10
-9 43 -20 73 -17 43 -21 75 -19 148 1 51 5 95 10 98 4 3 8 10 8 15 0 6 -4 7
-10 4 -6 -3 -7 1 -4 9 3 9 10 14 14 11 4 -3 11 2 14 11 3 8 2 12 -4 9 -6 -3
-7 1 -4 9 3 9 9 14 14 11 10 -6 32 44 24 56 -3 5 -2 9 3 8 18 -3 36 1 30 8 -4
3 3 12 16 19 114 66 254 68 377 4 30 -16 66 -31 80 -35 14 -4 75 -30 135 -58
l110 -52 145 0 c144 -1 146 -1 214 -34 l68 -34 82 13 c72 11 89 11 132 -3 27
-8 79 -18 116 -22 76 -7 113 -29 123 -74 13 -58 85 -103 186 -116 69 -8 236
11 267 31 65 43 -15 137 -92 108 -30 -12 -16 -25 19 -18 61 11 101 -45 54 -75
-12 -7 -65 -18 -118 -23 -167 -18 -256 14 -300 109 -27 58 -44 69 -127 78 -32
3 -88 13 -123 22 -54 14 -74 15 -133 5 -72 -13 -133 -4 -168 23 -39 31 -79 37
-188 30 -125 -8 -134 -6 -283 64 l-100 47 73 39 c40 20 115 64 167 97 l95 59
68 -26 c116 -42 164 -35 277 46 30 22 60 39 67 39 6 0 36 -16 65 -37 96 -65
197 -80 299 -42 141 52 142 52 206 28 96 -36 151 -36 221 -1 99 51 165 65 267
60 132 -7 183 -40 156 -100 -16 -33 -43 -48 -101 -55 -58 -7 -66 -23 -11 -23
57 1 116 32 132 70 32 77 -29 122 -175 128 -104 5 -185 -13 -276 -59 -70 -35
-117 -37 -179 -7 -64 30 -131 28 -205 -7 -50 -24 -74 -29 -140 -29 -85 -1
-129 14 -204 69 -45 33 -70 32 -127 -10 -96 -69 -108 -75 -156 -75 -43 0 -158
36 -158 49 1 3 33 31 72 61 101 78 237 217 315 321 57 77 70 89 96 89 21 0 39
-10 61 -35 41 -44 75 -45 135 -5 24 17 55 30 68 30 44 0 93 -31 113 -70 29
-57 67 -83 110 -76 27 4 52 23 107 81 89 92 112 96 176 35 58 -56 124 -75 234
-66 117 10 175 29 212 71 68 77 21 165 -112 209 -59 20 -80 20 -116 1 -52 -26
-49 -81 5 -124 28 -22 74 -29 74 -11 0 6 -9 10 -21 10 -21 0 -79 50 -79 69 0
17 43 51 65 51 43 0 118 -33 156 -70 48 -46 52 -84 12 -122 -41 -38 -60 -45
-152 -58 -138 -21 -211 -3 -276 66 -56 59 -117 44 -196 -48 -84 -97 -124 -99
-179 -10 -52 86 -138 104 -219 47 -48 -33 -71 -32 -103 5 -14 17 -40 33 -58
36 -17 4 -29 9 -28 13 2 3 27 54 56 113 100 206 137 387 128 633 -10 299 -87
568 -261 917 l-64 128 20 45 c72 163 97 610 79 1395 -3 118 -1 251 4 296 8 71
6 86 -12 127 -36 82 -133 108 -249 68z m-4448 -2766 c18 -4 20 -13 21 -107 2
-88 22 -209 37 -224 3 -3 33 13 67 35 75 49 186 87 223 77 21 -5 27 -13 27
-32 0 -39 -108 -148 -239 -240 -6 -5 40 -64 49 -64 5 0 30 13 54 29 25 15 66
34 91 41 40 11 48 11 62 -2 20 -21 8 -42 -62 -106 l-56 -52 53 -33 c118 -74
234 -107 383 -107 297 0 527 171 604 450 12 41 21 89 21 107 0 17 3 34 8 36 4
3 62 -2 130 -11 143 -18 134 -4 101 -165 -41 -202 -120 -350 -254 -475 -59
-55 -100 -83 -188 -126 -141 -69 -210 -86 -367 -93 -150 -6 -240 6 -373 51
-330 113 -555 382 -612 731 -15 88 -20 270 -10 298 5 12 20 12 108 0 56 -7
111 -15 122 -18z m4295 -97 c0 -220 -46 -382 -152 -546 -115 -176 -301 -310
-525 -379 -82 -25 -101 -27 -268 -27 -168 0 -186 2 -270 28 -293 90 -492 293
-574 586 -22 81 -41 198 -34 216 2 6 50 16 106 23 56 7 111 15 123 17 18 5 21
-2 32 -71 40 -254 208 -444 448 -505 163 -42 368 -18 514 61 105 57 103 51 32
117 -118 110 -58 148 96 61 l56 -31 23 26 c13 15 23 30 23 34 0 4 -19 20 -42
37 -69 49 -175 153 -189 186 -11 28 -10 33 7 46 13 10 32 12 59 8 47 -7 156
-56 202 -91 17 -13 36 -24 41 -24 16 0 34 102 39 218 5 104 7 113 27 117 36 8
149 22 189 24 l37 1 0 -132z m-1895 -925 c-10 -62 -26 -93 -46 -93 -19 0 -89
56 -89 71 0 4 17 13 38 19 20 6 48 17 62 25 37 21 42 19 35 -22z m-662 2 c20
-8 55 -15 77 -15 l41 0 -15 -27 c-21 -41 -54 -73 -75 -73 -12 0 -25 14 -36 36
-18 37 -36 94 -31 94 2 0 20 -7 39 -15z m1587 -761 c0 -8 -19 -13 -24 -6 -3 5
1 9 9 9 8 0 15 -2 15 -3z m-10 -38 c0 -3 -4 -8 -10 -11 -5 -3 -10 -1 -10 4 0
6 5 11 10 11 6 0 10 -2 10 -4z m-3 -78 c-3 -8 -6 -5 -6 6 -1 11 2 17 5 13 3
-3 4 -12 1 -19z m45 -327 c-5 -3 -14 -15 -21 -26 -12 -20 -11 -10 5 30 7 18 6
19 -12 5 -18 -14 -18 -14 -5 3 11 13 17 15 28 6 8 -7 10 -15 5 -18z m25 -13
c-3 -8 -6 -5 -6 6 -1 11 2 17 5 13 3 -3 4 -12 1 -19z m40 -133 c0 -8 -4 -12
-9 -9 -5 3 -6 10 -3 15 9 13 12 11 12 -6z m116 -82 c-3 -7 -6 -13 -8 -13 -2 0
-5 6 -8 13 -3 8 1 14 8 14 7 0 11 -6 8 -14z m-3148 -373 c3 -6 -1 -7 -9 -4
-18 7 -21 14 -7 14 6 0 13 -4 16 -10z m-52 -100 c-3 -11 -9 -20 -15 -20 -5 0
-4 9 2 20 6 11 12 20 14 20 2 0 2 -9 -1 -20z m5237 -274 c0 -2 -8 -10 -17 -17
-16 -13 -17 -12 -4 4 13 16 21 21 21 13z m-6056 -205 c7 -6 15 -9 18 -6 2 3 5
-18 7 -46 3 -64 -24 -99 -75 -99 -42 0 -84 19 -84 37 0 8 -5 11 -12 7 -6 -4
-8 -3 -5 3 3 5 7 28 8 51 2 30 8 43 21 48 10 3 18 9 18 14 0 21 76 14 104 -9z
m-384 -6 c16 -17 24 -38 25 -63 0 -20 5 -44 9 -52 7 -12 6 -12 -4 -3 -10 9
-17 7 -33 -8 -32 -29 -119 -23 -133 9 -12 30 -21 92 -13 86 5 -3 9 0 9 5 0 6
9 20 20 31 30 30 90 27 120 -5z m775 16 c-2 -2 3 -10 11 -19 17 -17 13 -45
-14 -102 -14 -29 -23 -35 -54 -38 -30 -3 -43 2 -65 25 -15 15 -27 37 -27 48 1
11 2 26 3 33 1 7 12 24 26 38 21 21 33 25 74 22 27 -2 48 -5 46 -7z m7301
-2851 c353 -31 584 -195 741 -526 114 -241 129 -503 41 -724 -99 -249 -314
-456 -633 -611 -111 -53 -307 -127 -382 -143 l-32 -7 17 53 c15 47 17 156 19
1005 l4 952 42 4 c23 2 49 4 57 5 8 1 65 -3 126 -8z"/>
<path d="M9519 9789 c-96 -66 -140 -108 -200 -193 -65 -92 -89 -170 -89 -291
0 -109 21 -189 69 -258 56 -82 122 -120 237 -136 54 -8 74 -16 96 -39 51 -51
38 -137 -38 -252 -82 -125 -116 -147 -392 -260 -181 -74 -223 -100 -284 -171
-115 -136 -235 -357 -245 -452 -11 -103 58 -247 194 -409 122 -144 228 -217
326 -225 54 -5 77 0 178 35 137 47 151 49 341 58 207 8 285 33 367 116 76 76
131 260 131 442 l0 99 -35 32 c-62 59 -218 97 -316 76 -53 -12 -129 -53 -129
-70 0 -5 11 -12 25 -15 39 -10 92 -63 111 -111 48 -128 -53 -253 -213 -263
l-63 -4 -49 48 c-66 67 -96 154 -96 279 1 145 4 150 187 241 166 83 275 149
325 197 41 39 49 80 62 307 7 121 15 188 27 218 14 33 15 47 6 67 -16 36 -79
77 -189 125 -157 68 -267 128 -301 163 -53 54 -76 134 -76 262 0 122 17 198
78 350 19 47 33 85 32 85 -1 0 -36 -23 -77 -51z"/>
<path d="M14775 4825 c-32 -9 -63 -21 -67 -28 -4 -6 -8 -9 -8 -4 0 17 -98 -45
-128 -82 -19 -23 -38 -39 -42 -36 -23 14 -93 -114 -122 -223 -17 -67 -20 -107
-20 -302 0 -196 2 -235 20 -302 30 -111 99 -237 123 -223 5 4 6 -2 2 -11 -5
-14 -3 -16 11 -11 9 4 15 3 12 -1 -3 -5 4 -16 15 -25 23 -20 26 -21 32 -4 2 6
3 4 1 -6 -2 -13 14 -26 58 -48 33 -17 70 -32 82 -33 12 -1 27 -5 33 -9 6 -4
47 -11 91 -16 91 -10 213 0 291 23 57 17 151 65 151 77 0 4 9 10 20 14 25 8
102 104 93 118 -3 5 -1 7 4 4 14 -9 57 91 69 159 22 136 26 187 21 349 -7 254
-39 365 -136 472 -30 34 -40 40 -50 30 -10 -9 -11 -8 -6 5 8 21 -40 53 -140
93 -63 26 -84 29 -210 31 -100 3 -157 -1 -200 -11z m257 -297 c21 -6 54 -27
73 -47 50 -51 59 -107 59 -351 -1 -167 -4 -212 -17 -244 -9 -21 -14 -43 -10
-49 3 -6 1 -7 -5 -3 -7 4 -12 1 -12 -7 0 -8 -8 -21 -17 -28 -17 -13 -17 -13
-3 6 12 16 10 16 -11 -3 -56 -49 -166 -57 -247 -16 -29 14 -52 30 -52 35 0 6
-5 7 -10 4 -6 -4 -10 -3 -9 2 3 18 -1 34 -8 30 -5 -3 -9 11 -11 30 -1 19 -5
39 -8 44 -7 11 -6 430 1 437 3 3 5 11 5 18 0 7 4 23 9 36 5 13 9 27 9 31 1 14
45 49 87 68 46 21 120 24 177 7z m138 -691 c0 -2 -10 -12 -22 -23 l-23 -19 19
23 c18 21 26 27 26 19z"/>
<path d="M13620 4817 c-13 -7 -29 -22 -35 -34 -6 -12 -22 -31 -36 -43 -13 -12
-18 -18 -11 -15 8 4 -7 -14 -32 -41 -25 -26 -44 -50 -41 -52 3 -3 -4 -12 -16
-20 -13 -9 -18 -20 -14 -30 3 -9 3 -13 -1 -9 -9 9 -44 -22 -44 -40 0 -7 -4
-13 -8 -13 -17 0 -183 -220 -176 -233 4 -6 3 -9 -1 -4 -9 8 -45 -20 -45 -35 0
-5 -16 -25 -35 -45 -19 -20 -33 -38 -31 -40 4 -4 -24 -37 -77 -91 -21 -21 -22
-32 -24 -175 -2 -147 -2 -152 20 -164 16 -9 105 -12 330 -13 l307 0 0 -98 c0
-65 4 -103 13 -111 10 -11 9 -12 -3 -6 -10 5 -9 2 3 -11 15 -17 35 -19 155
-21 185 -3 181 -7 184 139 l3 113 83 -3 c64 -3 89 0 108 13 24 16 25 17 22
148 -2 99 -6 131 -15 130 -7 -2 -13 2 -13 7 0 6 -38 10 -95 10 l-95 0 0 384
c0 327 -2 387 -15 399 -20 21 -327 24 -365 4z m40 -607 l0 -180 -145 0 c-164
0 -161 -3 -90 75 20 22 42 52 51 68 8 15 19 27 25 27 6 0 9 7 5 15 -3 8 -1 14
4 12 4 -1 34 29 66 67 31 38 51 66 43 62 -8 -4 -3 2 11 13 14 11 26 21 28 21
1 0 2 -81 2 -180z"/>
<path d="M16330 4823 c-20 -8 -50 -38 -109 -110 -50 -61 -62 -81 -39 -67 7 4
8 3 4 -5 -4 -6 -11 -9 -16 -6 -4 3 -13 -2 -20 -10 -7 -8 -9 -15 -5 -15 5 0 -5
-11 -21 -25 -16 -14 -26 -25 -22 -25 4 0 -3 -10 -15 -23 -24 -26 -73 -85 -127
-156 -19 -25 -41 -52 -48 -59 -7 -8 -9 -19 -5 -25 3 -7 3 -9 -2 -5 -9 8 -42
-32 -37 -45 1 -5 -2 -6 -7 -3 -5 3 -17 -6 -27 -21 -9 -15 -25 -36 -35 -47 -10
-10 -15 -24 -12 -30 3 -6 3 -8 -2 -4 -10 10 -96 -94 -90 -109 2 -7 0 -13 -6
-13 -17 0 -10 -251 7 -275 14 -19 30 -20 329 -23 l315 -3 0 -102 c0 -144 -4
-141 160 -145 144 -4 186 5 196 43 3 12 4 67 2 123 -2 64 0 98 6 92 6 -6 40
-10 77 -10 69 0 118 12 130 32 4 7 7 61 8 122 0 154 -2 156 -124 156 l-95 0 0
380 c0 377 0 379 -22 400 -20 18 -34 20 -177 19 -86 0 -163 -3 -171 -6z m22
-622 l-3 -171 -139 0 c-77 0 -140 3 -140 8 0 4 15 25 34 47 19 22 33 41 31 44
-3 2 7 12 20 23 14 11 25 26 25 34 0 8 7 17 15 20 12 5 85 93 140 170 5 7 12
9 15 5 3 -5 4 -86 2 -180z m9 -444 c-10 -9 -11 -8 -5 6 3 10 9 15 12 12 3 -3
0 -11 -7 -18z m300 -40 c-10 -9 -11 -8 -5 6 3 10 9 15 12 12 3 -3 0 -11 -7
-18z"/>
<path d="M14540 4700 c-8 -5 -12 -12 -9 -15 4 -3 12 1 19 10 14 17 11 19 -10
5z"/>
<path d="M15617 3094 c-2 -3 -15 -7 -28 -9 -27 -5 -89 -34 -89 -41 0 -3 5 -2
12 2 7 4 8 3 4 -4 -4 -6 -14 -8 -23 -5 -12 5 -15 2 -11 -9 4 -10 1 -15 -9 -14
-24 2 -80 -77 -98 -136 -23 -80 -21 -366 4 -441 21 -66 69 -140 84 -130 5 3 7
1 3 -5 -7 -11 57 -55 80 -55 8 0 14 -4 14 -7 0 -12 84 -30 135 -30 50 0 126
17 162 35 37 19 113 88 113 102 0 7 4 13 9 13 5 0 20 26 32 58 21 52 23 73 23
242 1 168 -2 190 -22 240 -21 53 -98 148 -110 136 -3 -3 -11 2 -18 12 -7 9
-16 17 -21 18 -4 0 -21 7 -38 14 -28 13 -198 24 -208 14z m189 -120 c43 -18
91 -75 106 -126 7 -26 12 -104 12 -198 0 -125 -3 -163 -17 -194 -9 -21 -14
-43 -10 -49 3 -6 1 -7 -5 -3 -16 10 -15 -6 1 -24 10 -12 9 -12 -3 -3 -11 9
-20 7 -37 -7 -12 -9 -20 -20 -18 -24 3 -3 2 -4 -1 -1 -4 2 -16 -1 -28 -7 -42
-23 -150 -25 -200 -4 -21 9 -42 13 -47 10 -5 -3 -8 -2 -7 3 2 4 -1 9 -6 10 -5
1 -14 12 -21 25 -6 13 -17 22 -23 21 -6 -2 -9 4 -6 12 4 8 2 15 -3 15 -13 0
-15 18 -19 218 -2 101 -6 188 -10 194 -5 7 -2 8 6 3 10 -6 12 -4 7 9 -4 9 -3
15 1 12 5 -3 16 11 26 29 48 89 190 126 302 79z"/>
<path d="M13042 3078 c-9 -9 -12 -115 -12 -415 0 -385 1 -404 19 -422 18 -18
36 -20 266 -20 255 -1 285 4 285 41 0 9 -8 22 -17 28 -17 11 -17 11 0 6 20 -6
23 9 5 21 -17 10 -8 10 -235 11 l-203 2 0 140 0 140 193 1 c105 1 195 1 200 0
4 0 8 2 8 6 15 103 14 104 -190 103 -91 0 -177 -1 -191 0 l-25 0 3 105 c3 78
0 110 -10 122 -11 14 -11 16 1 8 11 -6 13 -4 8 8 -6 16 12 17 207 17 230 0
231 0 234 54 4 56 2 56 -277 56 -187 0 -260 -3 -269 -12z"/>
<path d="M13782 3078 c-18 -18 -17 -817 1 -841 12 -18 40 -19 66 -3 11 7 12 6
6 -5 -8 -12 -6 -12 9 0 15 13 17 32 14 178 l-3 163 107 0 c62 0 109 4 113 10
8 13 26 3 24 -13 -3 -25 1 -38 11 -32 6 4 9 3 8 -2 -4 -13 24 -73 31 -68 4 2
8 -1 8 -8 0 -17 76 -147 86 -147 4 0 5 -4 2 -10 -3 -5 5 -21 19 -35 14 -14 22
-25 18 -25 -4 0 0 -5 8 -10 8 -5 32 -10 53 -10 36 0 42 6 37 40 -2 18 -79 152
-93 161 -5 3 -8 9 -7 13 4 12 -51 106 -61 106 -6 0 -8 4 -4 9 3 5 -2 16 -10
24 -13 14 -9 18 41 41 36 17 53 30 48 37 -4 7 -3 9 3 6 12 -7 29 12 57 61 38
69 30 212 -15 250 -10 9 -19 20 -19 25 0 5 -6 15 -14 22 -10 11 -16 11 -25 2
-9 -9 -11 -8 -6 4 5 13 -6 23 -42 40 -45 23 -60 24 -253 27 -151 1 -209 -1
-218 -10z m445 -120 c42 -23 68 -91 59 -150 -4 -24 -8 -52 -10 -63 -1 -11 -7
-20 -12 -20 -5 -1 -25 -10 -44 -20 -29 -17 -59 -20 -187 -23 l-152 -4 -3 151
c-2 83 0 152 4 154 4 1 76 0 160 -3 119 -4 160 -9 185 -22z"/>
<path d="M14592 3077 c-9 -11 -12 -119 -10 -427 3 -380 4 -414 20 -424 13 -8
23 -8 39 2 12 8 18 9 14 3 -9 -16 4 -13 21 4 12 12 14 44 12 175 -2 102 1 160
7 160 161 7 249 -4 243 -28 -5 -16 44 -92 54 -86 7 4 8 3 4 -4 -8 -13 88 -189
117 -215 21 -18 87 -24 87 -6 0 5 5 7 10 4 14 -9 7 24 -13 63 -11 19 -22 30
-29 26 -7 -4 -8 -3 -4 4 7 12 -8 48 -31 70 -7 7 -13 20 -13 28 0 8 -5 14 -11
14 -5 0 -8 4 -4 9 3 5 1 12 -4 15 -5 4 -19 26 -31 51 -12 25 -28 52 -36 60
-12 12 -6 17 40 39 70 33 112 84 127 154 13 62 4 166 -13 156 -7 -4 -8 -2 -4
4 12 20 -44 101 -71 102 -6 0 -13 5 -15 10 -2 6 -23 18 -48 28 -63 23 -440 31
-458 9z m442 -120 c15 -10 35 -16 44 -12 13 5 14 3 6 -5 -9 -9 -8 -18 2 -38
28 -54 11 -144 -34 -183 -38 -32 -36 -32 -209 -37 l-153 -4 0 152 0 152 158
-4 c132 -2 162 -6 186 -21z m143 -232 c0 -8 -4 -12 -9 -9 -5 3 -6 10 -3 15 9
13 12 11 12 -6z m-116 -28 c-10 -9 -11 -8 -5 6 3 10 9 15 12 12 3 -3 0 -11 -7
-18z m49 20 c0 -2 -10 -12 -22 -23 l-23 -19 19 23 c18 21 26 27 26 19z"/>
<path d="M16242 3084 c-10 -5 -12 -95 -12 -425 1 -400 2 -419 20 -429 25 -14
63 -13 78 2 15 15 17 319 3 334 -6 6 36 9 114 9 68 0 122 -2 120 -4 -8 -7 16
-41 25 -36 6 4 7 -1 3 -11 -5 -13 -3 -15 8 -9 8 4 11 5 7 0 -4 -4 6 -33 23
-64 88 -158 122 -210 130 -205 5 3 8 0 7 -8 -4 -18 62 -23 85 -6 17 13 16 18
-26 91 -24 42 -47 75 -50 72 -4 -3 -5 -2 -2 1 4 6 -22 64 -34 74 -9 8 -61 109
-61 119 0 5 15 15 34 21 46 15 123 99 130 141 13 78 13 98 3 149 -9 45 -19 63
-61 105 -72 71 -97 77 -331 81 -110 2 -206 1 -213 -2z m445 -132 c45 -32 59
-67 53 -133 -4 -47 -11 -63 -42 -98 -21 -22 -38 -37 -38 -31 0 6 -9 6 -24 0
-26 -9 -283 -16 -292 -7 -3 3 -6 70 -7 150 l-2 146 25 3 c14 2 86 1 160 -2
120 -4 139 -8 167 -28z"/>
</g>
</svg>
